<svg width="121" height="72" viewBox="0 0 121 72" fill="none" xmlns="http://www.w3.org/2000/svg"><style>.i{fill:var(--text-primary)}</style><path d="M55.4 7.5C54 7.5 52.9 7.1 51.9 6.3C50.9 5.5 50.5 4.5 50.5 3.4C50.5 1.1 51.9 0 54.9 0C56 0 57.1 0.4 58.2 1.2C59.3 2 59.8 2.9 59.8 4C59.8 4.9 59.3 5.7 58.3 6.4C57.3 7.1 56.3 7.5 55.4 7.5ZM9.5 72C7.1 72 5 71.3 3 69.8C1 68.2 0 66.7 0 65.1C0 63.6 0.4 62.9 1.1 62.9C1.1 62.9 1.9 63.8 3.4 65.8C5 67.8 6.8 68.8 8.8 68.8C15 68.8 22.1 61.8 30.1 47.6C32.5 43.3 34.5 39.3 36.2 35.8C37.9 32.2 39.2 29 40.2 26.2C39.5 27 38.4 28.1 37.1 29.4C35.8 30.6 34.5 31.8 33.2 32.8C32.1 33.7 31.2 34.2 30.7 34.2C30.4 34.2 30.3 34.1 30.3 33.8C30.3 33.1 30.8 32.3 31.8 31.4C33.3 30.1 35.1 28.1 37.1 25.2C39.4 22 40.7 20.2 41 19.9L44.8 15.8C46.4 14.3 48 13.6 49.5 13.6C51.6 13.6 52.7 14.4 52.7 16.2C52.7 16.5 51.3 19 48.6 23.9L43.4 32.8C37.4 44.3 32.8 52.3 29.5 56.8C22.4 66.9 15.7 72 9.5 72Z" class="i"/><path d="M57.3 48.2C55.3 48.2 53.8 47.3 52.7 45.5C51.6 43.7 51.1 41.9 51.1 40.2C51.1 35.5 54.5 28.9 61.2 20.5C68.1 12 73.7 7.7 77.9 7.7C81.9 7.7 83.8 9.8 83.8 14C83.8 14.7 83.8 15.3 83.6 16C83.5 16.7 83.4 17.5 83.3 18.3C83.4 18.5 83.8 18.6 84.4 18.6C86.5 18.6 89 17.9 91.9 16.4C91.8 17.7 88.8 19.6 82.7 22.1C83.5 24.7 81 29.6 74.9 36.9C68.8 44.4 63.5 48.2 59.1 48.2H57.3ZM59.4 44.7C62.7 44.7 67 41.6 72.3 35.5C77.3 29.5 79.9 25.1 79.9 22.5C78.6 21.8 77.1 20 75.2 17.1C72.5 17.1 68.7 20.3 63.7 26.7C58.8 32.9 56.4 37.7 56.6 41.1C56.6 43.5 57.6 44.7 59.4 44.7Z" class="i"/><path d="M88.8 49.5C86.3 49.5 84 48.7 82 47.2C80 45.5 79 43.4 79 40.7C79 35.2 82.4 28.9 89.1 21.8C96.1 14.6 102.3 11 107.8 11C109.6 11 111 11.5 112.1 12.5C113.3 13.5 113.8 14.6 113.8 16C113.8 20.4 110.4 24.7 103.4 28.9C97.3 32.7 92.1 34.5 87.9 34.5C87.2 34.5 86.7 34.5 86.2 34.3C85 36.4 84.5 38.6 84.5 41C84.5 45 86.4 47.1 90.2 47.1C94.1 47.1 99.1 44.4 105.3 39.2C110.1 35.4 114.1 31.3 117.5 27C118.2 26.1 118.8 25.6 119.3 25.6C119.8 25.6 120 25.9 120 26.3C120 26.8 119.7 27.5 119.1 28.3C116.9 31.2 114.6 33.9 112.1 36.3C109.6 38.7 106.9 40.9 104 43C98 47.3 92.9 49.5 88.8 49.5ZM89.5 32C92.5 32 96.3 30.5 101.1 27.5C102.6 26.4 104.2 25.2 105.6 23.9C107.2 22.5 108.5 21.1 109.4 19.7C110.4 18.3 110.9 17 110.9 15.9C110.9 14.9 110.1 14.4 108.5 14.4C106.1 14.4 102.8 16.2 98.6 19.7C96.6 21.4 94.6 23.3 92.8 25.3C90.9 27.3 89.3 29.5 88 31.7C88.4 31.9 88.9 32 89.5 32Z" class="i"/></svg>
