<svg width="166" height="107.6" viewBox="0 0 166 107.6" fill="none" xmlns="http://www.w3.org/2000/svg"><style>.c{fill:var(--border-subtle)}.e{fill:var(--icon-muted)}.f{fill:var(--icon-secondary)}.g{fill:var(--surface-border)}.h{fill:var(--text-secondary)}.i{fill:var(--text-primary)}</style><g class="nyan-paw nyan-paw-1"><rect x="46.1" y="96" width="11.6" height="5.8" class="c"/><rect x="46.1" y="101.8" width="11.6" height="5.8" class="i"/></g><g class="nyan-paw nyan-paw-2"><rect x="69.2" y="96" width="11.6" height="5.8" class="c"/><rect x="69.2" y="101.8" width="11.6" height="5.8" class="i"/></g><g class="nyan-paw nyan-paw-3"><rect x="92.3" y="96" width="11.6" height="5.8" class="c"/><rect x="92.3" y="101.8" width="11.6" height="5.8" class="i"/></g><g class="nyan-paw nyan-paw-4"><rect x="115.4" y="96" width="11.6" height="5.8" class="c"/><rect x="115.4" y="101.8" width="11.6" height="5.8" class="i"/></g><g class="nyan-body"><rect x="40.3" y="15.4" width="5.8" height="5.8" class="i"/><rect x="34.6" y="21.1" width="5.8" height="5.8" class="i"/><rect x="132.8" y="21.1" width="5.8" height="5.8" class="i"/><rect x="34.6" y="32.6" width="5.8" height="5.8" class="i"/><rect x="132.8" y="32.6" width="5.8" height="5.8" class="i"/><rect x="34.6" y="44.2" width="5.8" height="5.8" class="i"/><rect x="132.8" y="44.2" width="5.8" height="5.8" class="i"/><rect x="34.6" y="55.7" width="5.8" height="5.8" class="i"/><rect x="132.8" y="55.7" width="5.8" height="5.8" class="i"/><rect x="34.6" y="67.2" width="5.8" height="5.8" class="i"/><rect x="132.8" y="67.2" width="5.8" height="5.8" class="i"/><rect x="34.6" y="78.7" width="5.8" height="5.8" class="i"/><rect x="132.8" y="78.7" width="5.8" height="5.8" class="i"/><rect x="34.6" y="26.9" width="5.8" height="5.8" class="i"/><rect x="132.8" y="26.9" width="5.8" height="5.8" class="i"/><rect x="34.6" y="38.4" width="5.8" height="5.8" class="i"/><rect x="132.8" y="38.4" width="5.8" height="5.8" class="i"/><rect x="34.6" y="49.9" width="5.8" height="5.8" class="i"/><rect x="132.8" y="49.9" width="5.8" height="5.8" class="i"/><rect x="34.6" y="61.4" width="5.8" height="5.8" class="i"/><rect x="132.8" y="61.4" width="5.8" height="5.8" class="i"/><rect x="34.6" y="73" width="5.8" height="5.8" class="i"/><rect x="132.8" y="73" width="5.8" height="5.8" class="i"/><rect x="40.3" y="84.5" width="5.8" height="5.8" class="i"/><rect x="86.6" y="9.6" width="5.8" height="5.8" class="i"/><rect x="86.6" y="90.2" width="5.8" height="5.8" class="i"/><rect x="46.1" y="9.6" width="5.8" height="5.8" class="i"/><rect x="46.1" y="90.2" width="5.8" height="5.8" class="i"/><rect x="92.3" y="9.6" width="5.8" height="5.8" class="i"/><rect x="92.3" y="90.2" width="5.8" height="5.8" class="i"/><rect x="51.9" y="9.6" width="5.8" height="5.8" class="i"/><rect x="51.9" y="90.2" width="5.8" height="5.8" class="i"/><rect x="98.1" y="9.6" width="5.8" height="5.8" class="i"/><rect x="98.1" y="90.2" width="5.8" height="5.8" class="i"/><rect x="57.7" y="9.6" width="5.8" height="5.8" class="i"/><rect x="57.7" y="90.2" width="5.8" height="5.8" class="i"/><rect x="103.9" y="9.6" width="5.8" height="5.8" class="i"/><rect x="103.9" y="90.2" width="5.8" height="5.8" class="i"/><rect x="63.4" y="9.6" width="5.8" height="5.8" class="i"/><rect x="63.4" y="90.2" width="5.8" height="5.8" class="i"/><rect x="109.7" y="9.6" width="5.8" height="5.8" class="i"/><rect x="109.7" y="90.2" width="5.8" height="5.8" class="i"/><rect x="69.2" y="9.6" width="5.8" height="5.8" class="i"/><rect x="69.2" y="90.2" width="5.8" height="5.8" class="i"/><rect x="115.4" y="9.6" width="5.8" height="5.8" class="i"/><rect x="115.4" y="90.2" width="5.8" height="5.8" class="i"/><rect x="75" y="9.6" width="5.8" height="5.8" class="i"/><rect x="75" y="90.2" width="5.8" height="5.8" class="i"/><rect x="121.2" y="9.6" width="5.8" height="5.8" class="i"/><rect x="121.2" y="90.2" width="5.8" height="5.8" class="i"/><rect x="80.8" y="9.6" width="5.8" height="5.8" class="i"/><rect x="80.8" y="90.2" width="5.8" height="5.8" class="i"/><rect x="127" y="15.4" width="5.8" height="5.8" class="i"/><rect x="127" y="84.5" width="5.8" height="5.8" class="i"/><rect x="40.3" y="21.1" width="5.8" height="5.8" class="f"/><rect x="46.1" y="21.1" width="5.8" height="5.8" class="f"/><rect x="46.1" y="26.9" width="5.8" height="5.8" class="f"/><rect x="51.9" y="21.1" width="5.8" height="5.8" class="f"/><rect x="46.1" y="15.4" width="5.8" height="5.8" class="f"/><rect x="69.2" y="15.4" width="5.8" height="5.8" class="f"/><rect x="92.3" y="15.4" width="5.8" height="5.8" class="f"/><rect x="57.7" y="15.4" width="5.8" height="5.8" class="f"/><rect x="80.8" y="15.4" width="5.8" height="5.8" class="f"/><rect x="103.9" y="15.4" width="5.8" height="5.8" class="f"/><rect x="115.4" y="15.4" width="5.8" height="5.8" class="f"/><rect x="51.9" y="15.4" width="5.8" height="5.8" class="f"/><rect x="75" y="15.4" width="5.8" height="5.8" class="f"/><rect x="98.1" y="15.4" width="5.8" height="5.8" class="f"/><rect x="63.4" y="15.4" width="5.8" height="5.8" class="f"/><rect x="86.6" y="15.4" width="5.8" height="5.8" class="f"/><rect x="109.7" y="15.4" width="5.8" height="5.8" class="f"/><rect x="121.2" y="15.4" width="5.8" height="5.8" class="f"/><rect x="121.2" y="21.1" width="5.8" height="5.8" class="f"/><rect x="121.2" y="26.9" width="5.8" height="5.8" class="f"/><rect x="127" y="26.9" width="5.8" height="5.8" class="f"/><rect x="127" y="38.4" width="5.8" height="5.8" class="f"/><rect x="127" y="55.7" width="5.8" height="5.8" class="f"/><rect x="127" y="32.6" width="5.8" height="5.8" class="f"/><rect x="127" y="49.9" width="5.8" height="5.8" class="f"/><rect x="127" y="44.2" width="5.8" height="5.8" class="f"/><rect x="127" y="61.4" width="5.8" height="5.8" class="f"/><rect x="127" y="67.2" width="5.8" height="5.8" class="f"/><rect x="127" y="21.1" width="5.8" height="5.8" class="f"/><rect x="115.4" y="21.1" width="5.8" height="5.8" class="f"/><rect x="40.3" y="44.2" width="5.8" height="5.8" class="f"/><rect x="40.3" y="67.2" width="5.8" height="5.8" class="f"/><rect x="40.3" y="32.6" width="5.8" height="5.8" class="f"/><rect x="40.3" y="55.7" width="5.8" height="5.8" class="f"/><rect x="40.3" y="78.7" width="5.8" height="5.8" class="f"/><rect x="40.3" y="26.9" width="5.8" height="5.8" class="f"/><rect x="40.3" y="49.9" width="5.8" height="5.8" class="f"/><rect x="40.3" y="73" width="5.8" height="5.8" class="f"/><rect x="46.1" y="73" width="5.8" height="5.8" class="f"/><rect x="127" y="73" width="5.8" height="5.8" class="f"/><rect x="121.2" y="73" width="5.8" height="5.8" class="f"/><rect x="127" y="78.7" width="5.8" height="5.8" class="f"/><rect x="121.2" y="78.7" width="5.8" height="5.8" class="f"/><rect x="115.4" y="78.7" width="5.8" height="5.8" class="f"/><rect x="121.2" y="84.5" width="5.8" height="5.8" class="f"/><rect x="115.4" y="84.5" width="5.8" height="5.8" class="f"/><rect x="46.1" y="78.7" width="5.8" height="5.8" class="f"/><rect x="51.9" y="78.7" width="5.8" height="5.8" class="f"/><rect x="46.1" y="84.5" width="5.8" height="5.8" class="f"/><rect x="63.4" y="84.5" width="5.8" height="5.8" class="f"/><rect x="80.8" y="84.5" width="5.8" height="5.8" class="f"/><rect x="98.1" y="84.5" width="5.8" height="5.8" class="f"/><rect x="51.9" y="84.5" width="5.8" height="5.8" class="f"/><rect x="69.2" y="84.5" width="5.8" height="5.8" class="f"/><rect x="86.6" y="84.5" width="5.8" height="5.8" class="f"/><rect x="103.9" y="84.5" width="5.8" height="5.8" class="f"/><rect x="57.7" y="84.5" width="5.8" height="5.8" class="f"/><rect x="75" y="84.5" width="5.8" height="5.8" class="f"/><rect x="92.3" y="84.5" width="5.8" height="5.8" class="f"/><rect x="109.7" y="84.5" width="5.8" height="5.8" class="f"/><rect x="40.3" y="38.4" width="5.8" height="5.8" class="f"/><rect x="40.3" y="61.4" width="5.8" height="5.8" class="f"/><rect x="57.7" y="21.1" width="5.8" height="5.8" class="g"/><rect x="80.8" y="21.1" width="5.8" height="5.8" class="g"/><rect x="51.9" y="26.9" width="5.8" height="5.8" class="g"/><rect x="75" y="26.9" width="5.8" height="5.8" class="e"/><rect x="98.1" y="26.9" width="5.8" height="5.8" class="g"/><rect x="46.1" y="32.6" width="5.8" height="5.8" class="g"/><rect x="69.2" y="32.6" width="5.8" height="5.8" class="g"/><rect x="92.3" y="32.6" width="5.8" height="5.8" class="g"/><rect x="46.1" y="38.4" width="5.8" height="5.8" class="g"/><rect x="46.1" y="44.2" width="5.8" height="5.8" class="g"/><rect x="46.1" y="49.9" width="5.8" height="5.8" class="g"/><rect x="46.1" y="55.7" width="5.8" height="5.8" class="g"/><rect x="46.1" y="61.4" width="5.8" height="5.8" class="g"/><rect x="46.1" y="67.2" width="5.8" height="5.8" class="g"/><rect x="51.9" y="73" width="5.8" height="5.8" class="g"/><rect x="57.7" y="78.7" width="5.8" height="5.8" class="g"/><rect x="80.8" y="78.7" width="5.8" height="5.8" class="g"/><rect x="75" y="73" width="5.8" height="5.8" class="g"/><rect x="98.1" y="73" width="5.8" height="5.8" class="g"/><rect x="69.2" y="67.2" width="5.8" height="5.8" class="g"/><rect x="69.2" y="61.4" width="5.8" height="5.8" class="g"/><rect x="69.2" y="55.7" width="5.8" height="5.8" class="g"/><rect x="69.2" y="49.9" width="5.8" height="5.8" class="g"/><rect x="69.2" y="44.2" width="5.8" height="5.8" class="g"/><rect x="69.2" y="38.4" width="5.8" height="5.8" class="g"/><rect x="92.3" y="38.4" width="5.8" height="5.8" class="g"/><rect x="92.3" y="44.2" width="5.8" height="5.8" class="g"/><rect x="92.3" y="49.9" width="5.8" height="5.8" class="g"/><rect x="92.3" y="55.7" width="5.8" height="5.8" class="g"/><rect x="92.3" y="61.4" width="5.8" height="5.8" class="g"/><rect x="92.3" y="67.2" width="5.8" height="5.8" class="g"/><rect x="69.2" y="21.1" width="5.8" height="5.8" class="g"/><rect x="92.3" y="21.1" width="5.8" height="5.8" class="g"/><rect x="63.4" y="26.9" width="5.8" height="5.8" class="g"/><rect x="86.6" y="26.9" width="5.8" height="5.8" class="g"/><rect x="109.7" y="26.9" width="5.8" height="5.8" class="g"/><rect x="103.9" y="21.1" width="5.8" height="5.8" class="g"/><rect x="57.7" y="32.6" width="5.8" height="5.8" class="e"/><rect x="80.8" y="32.6" width="5.8" height="5.8" class="g"/><rect x="103.9" y="32.6" width="5.8" height="5.8" class="g"/><rect x="115.4" y="32.6" width="5.8" height="5.8" class="g"/><rect x="57.7" y="38.4" width="5.8" height="5.8" class="g"/><rect x="57.7" y="44.2" width="5.8" height="5.8" class="g"/><rect x="57.7" y="49.9" width="5.8" height="5.8" class="g"/><rect x="57.7" y="55.7" width="5.8" height="5.8" class="g"/><rect x="57.7" y="61.4" width="5.8" height="5.8" class="g"/><rect x="57.7" y="67.2" width="5.8" height="5.8" class="g"/><rect x="63.4" y="73" width="5.8" height="5.8" class="g"/><rect x="69.2" y="78.7" width="5.8" height="5.8" class="g"/><rect x="92.3" y="78.7" width="5.8" height="5.8" class="g"/><rect x="86.6" y="73" width="5.8" height="5.8" class="g"/><rect x="109.7" y="73" width="5.8" height="5.8" class="g"/><rect x="80.8" y="67.2" width="5.8" height="5.8" class="g"/><rect x="80.8" y="61.4" width="5.8" height="5.8" class="g"/><rect x="80.8" y="55.7" width="5.8" height="5.8" class="g"/><rect x="80.8" y="49.9" width="5.8" height="5.8" class="e"/><rect x="80.8" y="44.2" width="5.8" height="5.8" class="g"/><rect x="80.8" y="38.4" width="5.8" height="5.8" class="g"/><rect x="103.9" y="38.4" width="5.8" height="5.8" class="e"/><rect x="115.4" y="38.4" width="5.8" height="5.8" class="g"/><rect x="103.9" y="44.2" width="5.8" height="5.8" class="g"/><rect x="115.4" y="44.2" width="5.8" height="5.8" class="g"/><rect x="103.9" y="49.9" width="5.8" height="5.8" class="g"/><rect x="115.4" y="49.9" width="5.8" height="5.8" class="g"/><rect x="103.9" y="55.7" width="5.8" height="5.8" class="g"/><rect x="115.4" y="55.7" width="5.8" height="5.8" class="g"/><rect x="103.9" y="61.4" width="5.8" height="5.8" class="g"/><rect x="115.4" y="61.4" width="5.8" height="5.8" class="g"/><rect x="103.9" y="67.2" width="5.8" height="5.8" class="g"/><rect x="115.4" y="67.2" width="5.8" height="5.8" class="g"/><rect x="103.9" y="78.7" width="5.8" height="5.8" class="g"/><rect x="63.4" y="21.1" width="5.8" height="5.8" class="g"/><rect x="86.6" y="21.1" width="5.8" height="5.8" class="g"/><rect x="57.7" y="26.9" width="5.8" height="5.8" class="g"/><rect x="80.8" y="26.9" width="5.8" height="5.8" class="g"/><rect x="103.9" y="26.9" width="5.8" height="5.8" class="g"/><rect x="51.9" y="32.6" width="5.8" height="5.8" class="g"/><rect x="75" y="32.6" width="5.8" height="5.8" class="g"/><rect x="98.1" y="32.6" width="5.8" height="5.8" class="g"/><rect x="51.9" y="38.4" width="5.8" height="5.8" class="g"/><rect x="51.9" y="44.2" width="5.8" height="5.8" class="g"/><rect x="51.9" y="49.9" width="5.8" height="5.8" class="e"/><rect x="51.9" y="55.7" width="5.8" height="5.8" class="g"/><rect x="51.9" y="61.4" width="5.8" height="5.8" class="g"/><rect x="51.9" y="67.2" width="5.8" height="5.8" class="e"/><rect x="57.7" y="73" width="5.8" height="5.8" class="g"/><rect x="63.4" y="78.7" width="5.8" height="5.8" class="g"/><rect x="86.6" y="78.7" width="5.8" height="5.8" class="g"/><rect x="80.8" y="73" width="5.8" height="5.8" class="g"/><rect x="103.9" y="73" width="5.8" height="5.8" class="g"/><rect x="75" y="67.2" width="5.8" height="5.8" class="g"/><rect x="75" y="61.4" width="5.8" height="5.8" class="g"/><rect x="75" y="55.7" width="5.8" height="5.8" class="g"/><rect x="75" y="49.9" width="5.8" height="5.8" class="g"/><rect x="75" y="44.2" width="5.8" height="5.8" class="g"/><rect x="75" y="38.4" width="5.8" height="5.8" class="g"/><rect x="98.1" y="38.4" width="5.8" height="5.8" class="g"/><rect x="98.1" y="44.2" width="5.8" height="5.8" class="g"/><rect x="98.1" y="49.9" width="5.8" height="5.8" class="g"/><rect x="98.1" y="55.7" width="5.8" height="5.8" class="e"/><rect x="98.1" y="61.4" width="5.8" height="5.8" class="g"/><rect x="98.1" y="67.2" width="5.8" height="5.8" class="g"/><rect x="75" y="21.1" width="5.8" height="5.8" class="g"/><rect x="98.1" y="21.1" width="5.8" height="5.8" class="g"/><rect x="69.2" y="26.9" width="5.8" height="5.8" class="g"/><rect x="92.3" y="26.9" width="5.8" height="5.8" class="e"/><rect x="115.4" y="26.9" width="5.8" height="5.8" class="g"/><rect x="109.7" y="21.1" width="5.8" height="5.8" class="g"/><rect x="63.4" y="32.6" width="5.8" height="5.8" class="g"/><rect x="86.6" y="32.6" width="5.8" height="5.8" class="g"/><rect x="109.7" y="32.6" width="5.8" height="5.8" class="g"/><rect x="121.2" y="32.6" width="5.8" height="5.8" class="g"/><rect x="63.4" y="38.4" width="5.8" height="5.8" class="g"/><rect x="63.4" y="44.2" width="5.8" height="5.8" class="g"/><rect x="63.4" y="49.9" width="5.8" height="5.8" class="g"/><rect x="63.4" y="55.7" width="5.8" height="5.8" class="e"/><rect x="63.4" y="61.4" width="5.8" height="5.8" class="g"/><rect x="63.4" y="67.2" width="5.8" height="5.8" class="g"/><rect x="69.2" y="73" width="5.8" height="5.8" class="e"/><rect x="75" y="78.7" width="5.8" height="5.8" class="g"/><rect x="98.1" y="78.7" width="5.8" height="5.8" class="g"/><rect x="92.3" y="73" width="5.8" height="5.8" class="e"/><rect x="115.4" y="73" width="5.8" height="5.8" class="g"/><rect x="86.6" y="67.2" width="5.8" height="5.8" class="g"/><rect x="86.6" y="61.4" width="5.8" height="5.8" class="g"/><rect x="86.6" y="55.7" width="5.8" height="5.8" class="g"/><rect x="86.6" y="49.9" width="5.8" height="5.8" class="g"/><rect x="86.6" y="44.2" width="5.8" height="5.8" class="g"/><rect x="86.6" y="38.4" width="5.8" height="5.8" class="g"/><rect x="109.7" y="38.4" width="5.8" height="5.8" class="g"/><rect x="121.2" y="38.4" width="5.8" height="5.8" class="g"/><rect x="109.7" y="44.2" width="5.8" height="5.8" class="g"/><rect x="121.2" y="44.2" width="5.8" height="5.8" class="g"/><rect x="109.7" y="49.9" width="5.8" height="5.8" class="g"/><rect x="121.2" y="49.9" width="5.8" height="5.8" class="g"/><rect x="109.7" y="55.7" width="5.8" height="5.8" class="g"/><rect x="121.2" y="55.7" width="5.8" height="5.8" class="g"/><rect x="109.7" y="61.4" width="5.8" height="5.8" class="e"/><rect x="121.2" y="61.4" width="5.8" height="5.8" class="g"/><rect x="109.7" y="67.2" width="5.8" height="5.8" class="g"/><rect x="121.2" y="67.2" width="5.8" height="5.8" class="g"/><rect x="109.7" y="78.7" width="5.8" height="5.8" class="g"/><rect x="80.6" y="25.9" width="5.8" height="5.8" class="c"/><rect x="80.6" y="37.4" width="5.8" height="5.8" class="c"/><rect x="74.9" y="48.9" width="5.8" height="5.8" class="c"/><rect x="74.9" y="60.4" width="5.8" height="5.8" class="c"/><rect x="86.4" y="48.9" width="5.8" height="5.8" class="c"/><rect x="86.4" y="25.9" width="5.8" height="5.8" class="c"/><rect x="86.4" y="37.4" width="5.8" height="5.8" class="c"/><rect x="80.6" y="48.9" width="5.8" height="5.8" class="c"/><rect x="92.2" y="48.9" width="5.8" height="5.8" class="c"/><rect x="92.2" y="66.2" width="5.8" height="5.8" class="c"/><rect x="97.9" y="66.2" width="5.8" height="5.8" class="c"/><rect x="92.2" y="43.2" width="5.8" height="5.8" class="c"/><rect x="92.2" y="60.4" width="5.8" height="5.8" class="c"/><rect x="103.7" y="60.4" width="5.8" height="5.8" class="c"/><rect x="115.2" y="60.4" width="5.8" height="5.8" class="c"/><rect x="115.2" y="66.2" width="5.8" height="5.8" class="c"/><rect x="126.7" y="60.4" width="5.8" height="5.8" class="c"/><rect x="126.7" y="66.2" width="5.8" height="5.8" class="c"/><rect x="138.2" y="60.4" width="5.8" height="5.8" class="c"/><rect x="138.2" y="66.2" width="5.8" height="5.8" class="c"/><rect x="138.2" y="72" width="5.8" height="5.8" class="c"/><rect x="144" y="72" width="5.8" height="5.8" class="c"/><rect x="97.9" y="60.4" width="5.8" height="5.8" class="c"/><rect x="109.4" y="60.4" width="5.8" height="5.8" class="c"/><rect x="121" y="60.4" width="5.8" height="5.8" class="c"/><rect x="132.5" y="60.4" width="5.8" height="5.8" class="c"/><rect x="126.7" y="54.7" width="5.8" height="5.8" class="c"/><rect x="115.2" y="54.7" width="5.8" height="5.8" class="c"/><rect x="109.4" y="54.7" width="5.8" height="5.8" class="c"/><rect x="109.4" y="66.2" width="5.8" height="5.8" class="c"/><rect x="121" y="43.2" width="5.8" height="5.8" class="c"/><rect x="121" y="48.9" width="5.8" height="5.8" class="c"/><rect x="97.9" y="43.2" width="5.8" height="5.8" class="c"/><rect x="126.7" y="43.2" width="5.8" height="5.8" class="c"/><rect x="126.7" y="48.9" width="5.8" height="5.8" class="c"/><rect x="126.7" y="37.4" width="5.8" height="5.8" class="c"/><rect x="138.2" y="37.4" width="5.8" height="5.8" class="c"/><rect x="138.2" y="31.6" width="5.8" height="5.8" class="c"/><rect x="138.2" y="25.9" width="5.8" height="5.8" class="c"/><rect x="138.2" y="43.2" width="5.8" height="5.8" class="c"/><rect x="103.7" y="43.2" width="5.8" height="5.8" class="c"/><rect x="132.5" y="43.2" width="5.8" height="5.8" class="c"/><rect x="132.5" y="37.4" width="5.8" height="5.8" class="c"/><rect x="132.5" y="31.6" width="5.8" height="5.8" class="c"/><rect x="144" y="37.4" width="5.8" height="5.8" class="c"/><rect x="144" y="48.9" width="5.8" height="5.8" class="c"/><rect x="149.8" y="48.9" width="5.8" height="5.8" class="c"/><rect x="144" y="31.6" width="5.8" height="5.8" class="c"/><rect x="144" y="25.9" width="5.8" height="5.8" class="c"/><rect x="144" y="43.2" width="5.8" height="5.8" class="c"/><rect x="144" y="54.7" width="5.8" height="5.8" class="c"/><rect x="149.8" y="54.7" width="5.8" height="5.8" class="c"/><rect x="97.9" y="37.4" width="5.8" height="5.8" class="c"/><rect x="92.2" y="37.4" width="5.8" height="5.8" class="c"/><rect x="80.6" y="31.6" width="5.8" height="5.8" class="c"/><rect x="80.6" y="43.2" width="5.8" height="5.8" class="c"/><rect x="109.4" y="43.2" width="5.8" height="5.8" class="c"/><rect x="109.4" y="48.9" width="5.8" height="5.8" class="c"/><rect x="74.9" y="54.7" width="5.8" height="5.8" class="c"/><rect x="74.9" y="66.2" width="5.8" height="5.8" class="c"/><rect x="86.4" y="54.7" width="5.8" height="5.8" class="c"/><rect x="92.2" y="31.6" width="5.8" height="5.8" class="c"/><rect x="86.4" y="31.6" width="5.8" height="5.8" class="c"/><rect x="86.4" y="43.2" width="5.8" height="5.8" class="c"/><rect x="115.2" y="43.2" width="5.8" height="5.8" class="c"/><rect x="115.2" y="48.9" width="5.8" height="5.8" class="c"/><rect x="80.6" y="54.7" width="5.8" height="5.8" class="c"/><rect x="92.2" y="54.7" width="5.8" height="5.8" class="c"/><rect x="92.2" y="72" width="5.8" height="5.8" class="c"/><rect x="80.6" y="72" width="5.8" height="5.8" class="c"/><rect x="86.4" y="77.7" width="5.8" height="5.8" class="c"/><rect x="109.4" y="77.7" width="5.8" height="5.8" class="c"/><rect x="97.9" y="77.7" width="5.8" height="5.8" class="c"/><rect x="121" y="77.7" width="5.8" height="5.8" class="c"/><rect x="132.5" y="77.7" width="5.8" height="5.8" class="c"/><rect x="97.9" y="72" width="5.8" height="5.8" class="c"/><rect x="86.4" y="72" width="5.8" height="5.8" class="c"/><rect x="92.2" y="77.7" width="5.8" height="5.8" class="c"/><rect x="115.2" y="77.7" width="5.8" height="5.8" class="c"/><rect x="103.7" y="77.7" width="5.8" height="5.8" class="c"/><rect x="126.7" y="77.7" width="5.8" height="5.8" class="c"/><rect x="138.2" y="77.7" width="5.8" height="5.8" class="c"/><rect x="74.9" y="25.9" width="5.8" height="5.8" class="i"/><rect x="80.6" y="20.1" width="5.8" height="5.8" class="i"/><rect x="86.4" y="20.1" width="5.8" height="5.8" class="i"/><rect x="92.2" y="25.9" width="5.8" height="5.8" class="i"/><rect x="97.9" y="31.6" width="5.8" height="5.8" class="i"/><rect x="103.7" y="37.4" width="5.8" height="5.8" class="i"/><rect x="109.4" y="37.4" width="5.8" height="5.8" class="i"/><rect x="115.2" y="37.4" width="5.8" height="5.8" class="i"/><rect x="121" y="37.4" width="5.8" height="5.8" class="i"/><rect x="126.7" y="31.6" width="5.8" height="5.8" class="i"/><rect x="132.5" y="25.9" width="5.8" height="5.8" class="i"/><rect x="138.2" y="20.1" width="5.8" height="5.8" class="i"/><rect x="144" y="20.1" width="5.8" height="5.8" class="i"/><rect x="149.8" y="25.9" width="5.8" height="5.8" class="i"/><rect x="149.8" y="31.6" width="5.8" height="5.8" class="i"/><rect x="149.8" y="37.4" width="5.8" height="5.8" class="i"/><rect x="149.8" y="43.2" width="5.8" height="5.8" class="i"/><rect x="74.9" y="31.6" width="5.8" height="5.8" class="i"/><rect x="74.9" y="37.4" width="5.8" height="5.8" class="i"/><rect x="74.9" y="43.2" width="5.8" height="5.8" class="i"/><rect x="69.1" y="48.9" width="5.8" height="5.8" class="i"/><rect x="69.1" y="54.7" width="5.8" height="5.8" class="i"/><rect x="69.1" y="60.4" width="5.8" height="5.8" class="i"/><rect x="69.1" y="66.2" width="5.8" height="5.8" class="i"/><rect x="74.9" y="72" width="5.8" height="5.8" class="i"/><rect x="80.6" y="77.7" width="5.8" height="5.8" class="i"/><rect x="86.4" y="83.5" width="5.8" height="5.8" class="i"/><rect x="92.2" y="83.5" width="5.8" height="5.8" class="i"/><rect x="97.9" y="83.5" width="5.8" height="5.8" class="i"/><rect x="103.7" y="83.5" width="5.8" height="5.8" class="i"/><rect x="109.4" y="83.5" width="5.8" height="5.8" class="i"/><rect x="115.2" y="83.5" width="5.8" height="5.8" class="i"/><rect x="121" y="83.5" width="5.8" height="5.8" class="i"/><rect x="121" y="54.7" width="5.8" height="5.8" class="i"/><rect x="103.7" y="66.2" width="5.8" height="5.8" class="i"/><rect x="103.7" y="72" width="5.8" height="5.8" class="i"/><rect x="109.4" y="72" width="5.8" height="5.8" class="i"/><rect x="115.2" y="72" width="5.8" height="5.8" class="i"/><rect x="121" y="72" width="5.8" height="5.8" class="i"/><rect x="126.7" y="72" width="5.8" height="5.8" class="i"/><rect x="132.5" y="72" width="5.8" height="5.8" class="i"/><rect x="132.5" y="66.2" width="5.8" height="5.8" class="i"/><rect x="121" y="66.2" width="5.8" height="5.8" class="i"/><rect x="138.2" y="54.7" width="5.8" height="5.8" class="i"/><rect x="103.7" y="54.7" width="5.8" height="5.8" class="i"/><rect x="132.5" y="54.7" width="5.8" height="5.8" class="i"/><rect x="97.9" y="54.7" width="5.8" height="5.8" class="i"/><rect x="138.2" y="48.9" width="5.8" height="5.8" class="i"/><rect x="103.7" y="48.9" width="5.8" height="5.8" class="i"/><rect x="132.5" y="48.9" width="5.8" height="5.8" class="h"/><rect x="97.9" y="48.9" width="5.8" height="5.8" class="h"/><rect x="80.6" y="66.2" width="5.8" height="5.8" class="g"/><rect x="144" y="66.2" width="5.8" height="5.8" class="g"/><rect x="86.4" y="66.2" width="5.8" height="5.8" class="g"/><rect x="149.8" y="66.2" width="5.8" height="5.8" class="g"/><rect x="86.4" y="60.4" width="5.8" height="5.8" class="g"/><rect x="149.8" y="60.4" width="5.8" height="5.8" class="g"/><rect x="80.6" y="60.4" width="5.8" height="5.8" class="g"/><rect x="144" y="60.4" width="5.8" height="5.8" class="g"/><rect x="126.7" y="83.5" width="5.8" height="5.8" class="i"/><rect x="132.5" y="83.5" width="5.8" height="5.8" class="i"/><rect x="144" y="77.7" width="5.8" height="5.8" class="i"/><rect x="138.2" y="83.5" width="5.8" height="5.8" class="i"/><rect x="149.8" y="72" width="5.8" height="5.8" class="i"/><rect x="155.5" y="66.2" width="5.8" height="5.8" class="i"/><rect x="155.5" y="60.4" width="5.8" height="5.8" class="i"/><rect x="155.5" y="54.7" width="5.8" height="5.8" class="i"/><rect x="155.5" y="48.9" width="5.8" height="5.8" class="i"/></g><g class="nyan-tail"><rect x="0" y="41.8" width="5.8" height="5.8" class="i"/><rect x="0" y="47.5" width="5.8" height="5.8" class="i"/><rect x="0" y="53.3" width="5.8" height="5.8" class="i"/><rect x="5.8" y="53.3" width="5.8" height="5.8" class="i"/><rect x="5.8" y="59" width="5.8" height="5.8" class="i"/><rect x="11.5" y="59" width="5.8" height="5.8" class="i"/><rect x="11.5" y="64.8" width="5.8" height="5.8" class="i"/><rect x="17.3" y="64.8" width="5.8" height="5.8" class="i"/><rect x="23" y="64.8" width="5.8" height="5.8" class="i"/><rect x="28.8" y="64.8" width="5.8" height="5.8" class="i"/><rect x="28.8" y="70.6" width="5.8" height="5.8" class="i"/><rect x="5.8" y="41.8" width="5.8" height="5.8" class="i"/><rect x="11.5" y="41.8" width="5.8" height="5.8" class="i"/><rect x="17.3" y="41.8" width="5.8" height="5.8" class="i"/><rect x="17.3" y="47.5" width="5.8" height="5.8" class="i"/><rect x="23" y="47.5" width="5.8" height="5.8" class="i"/><rect x="23" y="53.3" width="5.8" height="5.8" class="i"/><rect x="28.8" y="53.3" width="5.8" height="5.8" class="i"/><rect x="5.8" y="47.5" width="5.8" height="5.8" class="c"/><rect x="11.5" y="47.5" width="5.8" height="5.8" class="c"/><rect x="11.5" y="53.3" width="5.8" height="5.8" class="c"/><rect x="17.3" y="53.3" width="5.8" height="5.8" class="c"/><rect x="17.3" y="59" width="5.8" height="5.8" class="c"/><rect x="28.8" y="59" width="5.8" height="5.8" class="c"/><rect x="23" y="59" width="5.8" height="5.8" class="c"/></g></svg>