<svg width="1521.6" height="60" viewBox="0 0 1521.6 60" fill="none" xmlns="http://www.w3.org/2000/svg"><style>.a{fill:var(--text-muted)}.b{fill:var(--text-tertiary)}.c{fill:var(--border-subtle)}.d{fill:var(--border)}</style><defs><pattern id="nyanRb" patternUnits="userSpaceOnUse" width="38.4" height="60"><rect x="0" y="9.6" width="4.8" height="4.8" class="b"/><rect x="0" y="28.8" width="4.8" height="4.8" class="d"/><rect x="0" y="48" width="4.8" height="4.8" class="c"/><rect x="19.2" y="50.4" width="4.8" height="4.8" class="c"/><rect x="19.2" y="31.2" width="4.8" height="4.8" class="d"/><rect x="19.2" y="12" width="4.8" height="4.8" class="b"/><rect x="0" y="14.4" width="4.8" height="4.8" class="b"/><rect x="0" y="33.6" width="4.8" height="4.8" class="d"/><rect x="0" y="52.8" width="4.8" height="4.8" class="c"/><rect x="19.2" y="55.2" width="4.8" height="4.8" class="c"/><rect x="19.2" y="36" width="4.8" height="4.8" class="d"/><rect x="19.2" y="16.8" width="4.8" height="4.8" class="b"/><rect x="4.8" y="9.6" width="4.8" height="4.8" class="b"/><rect x="4.8" y="28.8" width="4.8" height="4.8" class="d"/><rect x="4.8" y="48" width="4.8" height="4.8" class="c"/><rect x="24" y="50.4" width="4.8" height="4.8" class="c"/><rect x="24" y="31.2" width="4.8" height="4.8" class="d"/><rect x="24" y="12" width="4.8" height="4.8" class="b"/><rect x="4.8" y="14.4" width="4.8" height="4.8" class="b"/><rect x="4.8" y="33.6" width="4.8" height="4.8" class="d"/><rect x="4.8" y="52.8" width="4.8" height="4.8" class="c"/><rect x="24" y="55.2" width="4.8" height="4.8" class="c"/><rect x="24" y="36" width="4.8" height="4.8" class="d"/><rect x="24" y="16.8" width="4.8" height="4.8" class="b"/><rect x="9.6" y="9.6" width="4.8" height="4.8" class="b"/><rect x="9.6" y="28.8" width="4.8" height="4.8" class="d"/><rect x="9.6" y="48" width="4.8" height="4.8" class="c"/><rect x="28.8" y="50.4" width="4.8" height="4.8" class="c"/><rect x="28.8" y="31.2" width="4.8" height="4.8" class="d"/><rect x="28.8" y="12" width="4.8" height="4.8" class="b"/><rect x="9.6" y="14.4" width="4.8" height="4.8" class="b"/><rect x="9.6" y="33.6" width="4.8" height="4.8" class="d"/><rect x="9.6" y="52.8" width="4.8" height="4.8" class="c"/><rect x="28.8" y="55.2" width="4.8" height="4.8" class="c"/><rect x="28.8" y="36" width="4.8" height="4.8" class="d"/><rect x="28.8" y="16.8" width="4.8" height="4.8" class="b"/><rect x="14.4" y="9.6" width="4.8" height="4.8" class="b"/><rect x="14.4" y="28.8" width="4.8" height="4.8" class="d"/><rect x="14.4" y="48" width="4.8" height="4.8" class="c"/><rect x="33.6" y="50.4" width="4.8" height="4.8" class="c"/><rect x="33.6" y="31.2" width="4.8" height="4.8" class="d"/><rect x="33.6" y="12" width="4.8" height="4.8" class="b"/><rect x="14.4" y="14.4" width="4.8" height="4.8" class="b"/><rect x="14.4" y="33.6" width="4.8" height="4.8" class="d"/><rect x="14.4" y="52.8" width="4.8" height="4.8" class="c"/><rect x="33.6" y="55.2" width="4.8" height="4.8" class="c"/><rect x="33.6" y="36" width="4.8" height="4.8" class="d"/><rect x="33.6" y="16.8" width="4.8" height="4.8" class="b"/><rect x="19.2" y="2.4" width="4.8" height="4.8" class="c"/><rect x="0" y="0" width="4.8" height="4.8" class="c"/><rect x="0" y="38.4" width="4.8" height="4.8" class="d"/><rect x="19.2" y="40.8" width="4.8" height="4.8" class="d"/><rect x="0" y="19.2" width="4.8" height="4.8" class="a"/><rect x="19.2" y="21.6" width="4.8" height="4.8" class="a"/><rect x="19.2" y="7.2" width="4.8" height="4.8" class="c"/><rect x="0" y="4.8" width="4.8" height="4.8" class="c"/><rect x="0" y="43.2" width="4.8" height="4.8" class="d"/><rect x="19.2" y="45.6" width="4.8" height="4.8" class="d"/><rect x="0" y="24" width="4.8" height="4.8" class="a"/><rect x="19.2" y="26.4" width="4.8" height="4.8" class="a"/><rect x="24" y="2.4" width="4.8" height="4.8" class="c"/><rect x="4.8" y="0" width="4.8" height="4.8" class="c"/><rect x="4.8" y="38.4" width="4.8" height="4.8" class="d"/><rect x="24" y="40.8" width="4.8" height="4.8" class="d"/><rect x="4.8" y="19.2" width="4.8" height="4.8" class="a"/><rect x="24" y="21.6" width="4.8" height="4.8" class="a"/><rect x="24" y="7.2" width="4.8" height="4.8" class="c"/><rect x="4.8" y="4.8" width="4.8" height="4.8" class="c"/><rect x="4.8" y="43.2" width="4.8" height="4.8" class="d"/><rect x="24" y="45.6" width="4.8" height="4.8" class="d"/><rect x="4.8" y="24" width="4.8" height="4.8" class="a"/><rect x="24" y="26.4" width="4.8" height="4.8" class="a"/><rect x="28.8" y="2.4" width="4.8" height="4.8" class="c"/><rect x="9.6" y="0" width="4.8" height="4.8" class="c"/><rect x="9.6" y="38.4" width="4.8" height="4.8" class="d"/><rect x="28.8" y="40.8" width="4.8" height="4.8" class="d"/><rect x="9.6" y="19.2" width="4.8" height="4.8" class="a"/><rect x="28.8" y="21.6" width="4.8" height="4.8" class="a"/><rect x="28.8" y="7.2" width="4.8" height="4.8" class="c"/><rect x="9.6" y="4.8" width="4.8" height="4.8" class="c"/><rect x="9.6" y="43.2" width="4.8" height="4.8" class="d"/><rect x="28.8" y="45.6" width="4.8" height="4.8" class="d"/><rect x="9.6" y="24" width="4.8" height="4.8" class="a"/><rect x="28.8" y="26.4" width="4.8" height="4.8" class="a"/><rect x="33.6" y="2.4" width="4.8" height="4.8" class="c"/><rect x="14.4" y="0" width="4.8" height="4.8" class="c"/><rect x="14.4" y="38.4" width="4.8" height="4.8" class="d"/><rect x="33.6" y="40.8" width="4.8" height="4.8" class="d"/><rect x="14.4" y="19.2" width="4.8" height="4.8" class="a"/><rect x="33.6" y="21.6" width="4.8" height="4.8" class="a"/><rect x="33.6" y="7.2" width="4.8" height="4.8" class="c"/><rect x="14.4" y="4.8" width="4.8" height="4.8" class="c"/><rect x="14.4" y="43.2" width="4.8" height="4.8" class="d"/><rect x="33.6" y="45.6" width="4.8" height="4.8" class="d"/><rect x="14.4" y="24" width="4.8" height="4.8" class="a"/><rect x="33.6" y="26.4" width="4.8" height="4.8" class="a"/></pattern></defs><rect class="rb-scroll" x="-38.4" y="0" width="1598.4" height="60" fill="url(#nyanRb)"/></svg>