<svg width="121" height="72" viewBox="0 0 121 72" fill="none" xmlns="http://www.w3.org/2000/svg">
<path d="M55.3756 7.49268C54.0488 7.49268 52.8781 7.10244 51.8634 6.32195C50.9268 5.46342 50.4585 4.48781 50.4585 3.39512C50.4585 1.13171 51.9415 0 54.9073 0C56 0 57.0927 0.390245 58.1854 1.17073C59.278 1.95122 59.8244 2.88781 59.8244 3.98049C59.8244 4.91707 59.3171 5.73659 58.3024 6.43902C57.2878 7.14146 56.3122 7.49268 55.3756 7.49268ZM9.48293 72C7.14146 72 4.99512 71.2585 3.0439 69.7756C1.01463 68.2146 0 66.6537 0 65.0927C0 63.6098 0.35122 62.8683 1.05366 62.8683C1.13171 62.8683 1.91219 63.8439 3.39512 65.7951C4.9561 67.8244 6.75122 68.839 8.78049 68.839C15.0244 68.839 22.1268 61.7756 30.0878 47.6488C32.5073 43.278 34.5366 39.3366 36.1756 35.8244C37.8927 32.2341 39.2195 29.0341 40.1561 26.2244C39.4537 27.0049 38.439 28.0585 37.1122 29.3854C35.7854 30.6341 34.4976 31.7659 33.2488 32.7805C32.078 33.7171 31.2195 34.1854 30.6732 34.1854C30.439 34.1854 30.322 34.0683 30.322 33.8341C30.322 33.1317 30.8293 32.3122 31.8439 31.3756C33.3268 30.1268 35.0829 28.0585 37.1122 25.1707C39.3756 21.9707 40.6634 20.2146 40.9756 19.9024L44.839 15.8049C46.4 14.322 47.961 13.5805 49.522 13.5805C51.6293 13.5805 52.6829 14.439 52.6829 16.1561C52.6829 16.4683 51.3171 19.0439 48.5854 23.8829L43.4341 32.7805C37.4244 44.2537 32.7805 52.2537 29.5024 56.7805C22.4 66.9268 15.7268 72 9.48293 72Z" fill="black"/>
<path d="M57.2689 48.2341C55.3177 48.2341 53.7957 47.3366 52.7031 45.5415C51.6104 43.6683 51.064 41.8732 51.064 40.1561C51.064 35.4732 54.4591 28.9171 61.2494 20.4878C68.1177 11.9805 73.6591 7.72683 77.8738 7.72683C81.8543 7.72683 83.8445 9.83415 83.8445 14.0488C83.8445 14.6732 83.7665 15.3366 83.6104 16.039C83.5323 16.7415 83.4152 17.4829 83.2591 18.2634C83.4152 18.4976 83.8055 18.6146 84.4299 18.6146C86.5372 18.6146 89.0348 17.8732 91.9226 16.3902C91.8445 17.7171 88.7616 19.6293 82.6738 22.1268C83.5323 24.7024 80.9567 29.6195 74.947 36.878C68.7811 44.4488 63.5128 48.2341 59.1421 48.2341H57.2689ZM59.3762 44.7219C62.7323 44.7219 67.025 41.639 72.2543 35.4732C77.3274 29.4634 79.864 25.1317 79.864 22.478C78.6152 21.7756 77.0543 19.9805 75.1811 17.0927C72.5274 17.0927 68.703 20.2927 63.7079 26.6927C58.7909 32.9366 56.4104 37.7366 56.5665 41.0927C56.6445 43.5122 57.5811 44.7219 59.3762 44.7219Z" fill="black"/>
<path d="M88.7908 49.5219C86.2933 49.5219 84.0299 48.7415 82.0006 47.1805C79.9713 45.5415 78.9567 43.3951 78.9567 40.7415C78.9567 35.2 82.3518 28.878 89.1421 21.7756C96.0884 14.5951 102.293 11.0049 107.757 11.0049C109.552 11.0049 110.996 11.5122 112.088 12.5268C113.259 13.4634 113.845 14.6341 113.845 16.039C113.845 20.4098 110.371 24.7024 103.425 28.9171C97.2591 32.6634 92.0689 34.5366 87.8543 34.5366C87.2299 34.5366 86.6835 34.4585 86.2152 34.3024C85.0445 36.4098 84.4591 38.6341 84.4591 40.9756C84.4591 45.0341 86.3713 47.0634 90.1957 47.0634C94.0982 47.0634 99.1323 44.4488 105.298 39.2195C110.059 35.3951 114.118 31.3366 117.474 27.0439C118.176 26.1073 118.801 25.639 119.347 25.639C119.815 25.639 120.049 25.8732 120.049 26.3415C120.049 26.8098 119.737 27.4732 119.113 28.3317C116.927 31.2195 114.586 33.8732 112.088 36.2927C109.591 38.7122 106.898 40.9366 104.01 42.9659C98.0006 47.3366 92.9274 49.5219 88.7908 49.5219ZM89.4933 31.961C92.4591 31.961 96.3226 30.478 101.084 27.5122C102.645 26.4195 104.166 25.2098 105.649 23.8829C107.21 22.478 108.459 21.0732 109.396 19.6683C110.41 18.2634 110.918 17.0146 110.918 15.922C110.918 14.9073 110.098 14.4 108.459 14.4C106.118 14.4 102.84 16.1561 98.625 19.6683C96.5957 21.3854 94.6445 23.2585 92.7713 25.2878C90.8982 27.3171 89.2982 29.4634 87.9713 31.7268C88.4396 31.8829 88.947 31.961 89.4933 31.961Z" fill="black"/>
</svg>
