<svg width="166" height="96" viewBox="0 0 166 96" fill="none" xmlns="http://www.w3.org/2000/svg">
<rect y="41.7598" width="5.76" height="5.76" fill="black"/>
<rect y="47.5195" width="5.76" height="5.76" fill="black"/>
<rect y="53.2793" width="5.76" height="5.76" fill="black"/>
<rect x="5.76001" y="53.2793" width="5.76" height="5.76" fill="black"/>
<rect x="5.76001" y="59.04" width="5.76" height="5.76" fill="black"/>
<rect x="11.52" y="59.04" width="5.76" height="5.76" fill="black"/>
<rect x="11.52" y="64.7998" width="5.76" height="5.76" fill="black"/>
<rect x="17.28" y="64.7998" width="5.76" height="5.76" fill="black"/>
<rect x="23.04" y="64.7998" width="5.76" height="5.76" fill="black"/>
<rect x="28.8" y="64.7998" width="5.76" height="5.76" fill="black"/>
<rect x="28.8" y="70.5596" width="5.76" height="5.76" fill="black"/>
<rect x="5.76001" y="41.7598" width="5.76" height="5.76" fill="black"/>
<rect x="11.52" y="41.7598" width="5.76" height="5.76" fill="black"/>
<rect x="17.28" y="41.7598" width="5.76" height="5.76" fill="black"/>
<rect x="17.28" y="47.5195" width="5.76" height="5.76" fill="black"/>
<rect x="23.04" y="47.5195" width="5.76" height="5.76" fill="black"/>
<rect x="23.04" y="53.2793" width="5.76" height="5.76" fill="black"/>
<rect x="28.8" y="53.2793" width="5.76" height="5.76" fill="black"/>
<rect x="5.76001" y="47.5195" width="5.76" height="5.76" fill="#C4C4C4"/>
<rect x="11.52" y="47.5195" width="5.76" height="5.76" fill="#C4C4C4"/>
<rect x="11.52" y="53.2793" width="5.76" height="5.76" fill="#C4C4C4"/>
<rect x="17.28" y="53.2793" width="5.76" height="5.76" fill="#C4C4C4"/>
<rect x="17.28" y="59.04" width="5.76" height="5.76" fill="#C4C4C4"/>
<rect x="28.8" y="59.04" width="5.76" height="5.76" fill="#C4C4C4"/>
<rect x="23.04" y="59.04" width="5.76" height="5.76" fill="#C4C4C4"/>
<rect x="40.3378" y="15.3594" width="5.77778" height="5.76" fill="black"/>
<rect x="34.56" y="21.1191" width="5.77778" height="5.76" fill="black"/>
<rect x="132.782" y="21.1191" width="5.77778" height="5.76" fill="black"/>
<rect x="34.56" y="32.6396" width="5.77778" height="5.76" fill="black"/>
<rect x="132.782" y="32.6396" width="5.77778" height="5.76" fill="black"/>
<rect x="34.56" y="44.1592" width="5.77778" height="5.76" fill="black"/>
<rect x="132.782" y="44.1592" width="5.77778" height="5.76" fill="black"/>
<rect x="34.56" y="55.6797" width="5.77778" height="5.76" fill="black"/>
<rect x="132.782" y="55.6797" width="5.77778" height="5.76" fill="black"/>
<rect x="34.56" y="67.1992" width="5.77778" height="5.75999" fill="black"/>
<rect x="132.782" y="67.1992" width="5.77778" height="5.75999" fill="black"/>
<rect x="34.56" y="78.7197" width="5.77778" height="5.76001" fill="black"/>
<rect x="132.782" y="78.7197" width="5.77778" height="5.76001" fill="black"/>
<rect x="34.56" y="26.8799" width="5.77778" height="5.76" fill="black"/>
<rect x="132.782" y="26.8799" width="5.77778" height="5.76" fill="black"/>
<rect x="34.56" y="38.3994" width="5.77778" height="5.76" fill="black"/>
<rect x="132.782" y="38.3994" width="5.77778" height="5.76" fill="black"/>
<rect x="34.56" y="49.9199" width="5.77778" height="5.76" fill="black"/>
<rect x="132.782" y="49.9199" width="5.77778" height="5.76" fill="black"/>
<rect x="34.56" y="61.4395" width="5.77778" height="5.76" fill="black"/>
<rect x="132.782" y="61.4395" width="5.77778" height="5.76" fill="black"/>
<rect x="34.56" y="72.96" width="5.77778" height="5.76" fill="black"/>
<rect x="132.782" y="72.96" width="5.77778" height="5.76" fill="black"/>
<rect x="40.3378" y="84.4795" width="5.77778" height="5.76" fill="black"/>
<rect x="86.56" y="9.59961" width="5.77778" height="5.76" fill="black"/>
<rect x="86.56" y="90.2393" width="5.77778" height="5.76" fill="black"/>
<rect x="46.1155" y="9.59961" width="5.77778" height="5.76" fill="black"/>
<rect x="46.1155" y="90.2393" width="5.77778" height="5.76" fill="black"/>
<rect x="92.3378" y="9.59961" width="5.77778" height="5.76" fill="black"/>
<rect x="92.3378" y="90.2393" width="5.77778" height="5.76" fill="black"/>
<rect x="51.8933" y="9.59961" width="5.77778" height="5.76" fill="black"/>
<rect x="51.8933" y="90.2393" width="5.77778" height="5.76" fill="black"/>
<rect x="98.1155" y="9.59961" width="5.77778" height="5.76" fill="black"/>
<rect x="98.1155" y="90.2393" width="5.77778" height="5.76" fill="black"/>
<rect x="57.6711" y="9.59961" width="5.77778" height="5.76" fill="black"/>
<rect x="57.6711" y="90.2393" width="5.77778" height="5.76" fill="black"/>
<rect x="103.893" y="9.59961" width="5.77778" height="5.76" fill="black"/>
<rect x="103.893" y="90.2393" width="5.77778" height="5.76" fill="black"/>
<rect x="63.4489" y="9.59961" width="5.77778" height="5.76" fill="black"/>
<rect x="63.4489" y="90.2393" width="5.77778" height="5.76" fill="black"/>
<rect x="109.671" y="9.59961" width="5.77778" height="5.76" fill="black"/>
<rect x="109.671" y="90.2393" width="5.77778" height="5.76" fill="black"/>
<rect x="69.2267" y="9.59961" width="5.77778" height="5.76" fill="black"/>
<rect x="69.2267" y="90.2393" width="5.77778" height="5.76" fill="black"/>
<rect x="115.449" y="9.59961" width="5.77778" height="5.76" fill="black"/>
<rect x="115.449" y="90.2393" width="5.77778" height="5.76" fill="black"/>
<rect x="75.0045" y="9.59961" width="5.77778" height="5.76" fill="black"/>
<rect x="75.0045" y="90.2393" width="5.77778" height="5.76" fill="black"/>
<rect x="121.227" y="9.59961" width="5.77778" height="5.76" fill="black"/>
<rect x="121.227" y="90.2393" width="5.77778" height="5.76" fill="black"/>
<rect x="80.7822" y="9.59961" width="5.77778" height="5.76" fill="black"/>
<rect x="80.7822" y="90.2393" width="5.77778" height="5.76" fill="black"/>
<rect x="127.004" y="15.3594" width="5.77778" height="5.76" fill="black"/>
<rect x="127.004" y="84.4795" width="5.77778" height="5.76" fill="black"/>
<rect x="40.3378" y="21.1191" width="5.77778" height="5.76" fill="#BEBEBE"/>
<rect x="46.1155" y="21.1191" width="5.77778" height="5.76" fill="#BEBEBE"/>
<rect x="46.1155" y="26.8799" width="5.77778" height="5.76" fill="#BEBEBE"/>
<rect x="51.8933" y="21.1191" width="5.77778" height="5.76" fill="#BEBEBE"/>
<rect x="46.1155" y="15.3594" width="5.77778" height="5.76" fill="#BEBEBE"/>
<rect x="69.2267" y="15.3594" width="5.77778" height="5.76" fill="#BEBEBE"/>
<rect x="92.3378" y="15.3594" width="5.77778" height="5.76" fill="#BEBEBE"/>
<rect x="57.6711" y="15.3594" width="5.77778" height="5.76" fill="#BEBEBE"/>
<rect x="80.7822" y="15.3594" width="5.77778" height="5.76" fill="#BEBEBE"/>
<rect x="103.893" y="15.3594" width="5.77778" height="5.76" fill="#BEBEBE"/>
<rect x="115.449" y="15.3594" width="5.77778" height="5.76" fill="#BEBEBE"/>
<rect x="51.8933" y="15.3594" width="5.77778" height="5.76" fill="#BEBEBE"/>
<rect x="75.0045" y="15.3594" width="5.77778" height="5.76" fill="#BEBEBE"/>
<rect x="98.1155" y="15.3594" width="5.77778" height="5.76" fill="#BEBEBE"/>
<rect x="63.4489" y="15.3594" width="5.77778" height="5.76" fill="#BEBEBE"/>
<rect x="86.56" y="15.3594" width="5.77778" height="5.76" fill="#BEBEBE"/>
<rect x="109.671" y="15.3594" width="5.77778" height="5.76" fill="#BEBEBE"/>
<rect x="121.227" y="15.3594" width="5.77778" height="5.76" fill="#BEBEBE"/>
<rect x="121.227" y="21.1191" width="5.77778" height="5.76" fill="#BEBEBE"/>
<rect x="121.227" y="26.8799" width="5.77778" height="5.76" fill="#BEBEBE"/>
<rect x="127.004" y="26.8799" width="5.77778" height="5.76" fill="#BEBEBE"/>
<rect x="127.004" y="38.3994" width="5.77778" height="5.76" fill="#BEBEBE"/>
<rect x="127.004" y="55.6797" width="5.77778" height="5.76" fill="#BEBEBE"/>
<rect x="127.004" y="32.6396" width="5.77778" height="5.76" fill="#BEBEBE"/>
<rect x="127.004" y="49.9199" width="5.77778" height="5.76" fill="#BEBEBE"/>
<rect x="127.004" y="44.1592" width="5.77778" height="5.76" fill="#BEBEBE"/>
<rect x="127.004" y="61.4395" width="5.77778" height="5.76" fill="#BEBEBE"/>
<rect x="127.004" y="67.1992" width="5.77778" height="5.75999" fill="#BEBEBE"/>
<rect x="127.004" y="21.1191" width="5.77778" height="5.76" fill="#BEBEBE"/>
<rect x="115.449" y="21.1191" width="5.77778" height="5.76" fill="#BEBEBE"/>
<rect x="40.3378" y="44.1592" width="5.77778" height="5.76" fill="#BEBEBE"/>
<rect x="40.3378" y="67.1992" width="5.77778" height="5.75999" fill="#BEBEBE"/>
<rect x="40.3378" y="32.6396" width="5.77778" height="5.76" fill="#BEBEBE"/>
<rect x="40.3378" y="55.6797" width="5.77778" height="5.76" fill="#BEBEBE"/>
<rect x="40.3378" y="78.7197" width="5.77778" height="5.76001" fill="#BEBEBE"/>
<rect x="40.3378" y="26.8799" width="5.77778" height="5.76" fill="#BEBEBE"/>
<rect x="40.3378" y="49.9199" width="5.77778" height="5.76" fill="#BEBEBE"/>
<rect x="40.3378" y="72.96" width="5.77778" height="5.76" fill="#BEBEBE"/>
<rect x="46.1155" y="72.96" width="5.77778" height="5.76" fill="#BEBEBE"/>
<rect x="127.004" y="72.96" width="5.77778" height="5.76" fill="#BEBEBE"/>
<rect x="121.227" y="72.96" width="5.77778" height="5.76" fill="#BEBEBE"/>
<rect x="127.004" y="78.7197" width="5.77778" height="5.76001" fill="#BEBEBE"/>
<rect x="121.227" y="78.7197" width="5.77778" height="5.76001" fill="#BEBEBE"/>
<rect x="115.449" y="78.7197" width="5.77778" height="5.76001" fill="#BEBEBE"/>
<rect x="121.227" y="84.4795" width="5.77778" height="5.76" fill="#BEBEBE"/>
<rect x="115.449" y="84.4795" width="5.77778" height="5.76" fill="#BEBEBE"/>
<rect x="46.1155" y="78.7197" width="5.77778" height="5.76001" fill="#BEBEBE"/>
<rect x="51.8933" y="78.7197" width="5.77778" height="5.76001" fill="#BEBEBE"/>
<rect x="46.1155" y="84.4795" width="5.77778" height="5.76" fill="#BEBEBE"/>
<rect x="63.4489" y="84.4795" width="5.77778" height="5.76" fill="#BEBEBE"/>
<rect x="80.7822" y="84.4795" width="5.77778" height="5.76" fill="#BEBEBE"/>
<rect x="98.1155" y="84.4795" width="5.77778" height="5.76" fill="#BEBEBE"/>
<rect x="51.8933" y="84.4795" width="5.77778" height="5.76" fill="#BEBEBE"/>
<rect x="69.2267" y="84.4795" width="5.77778" height="5.76" fill="#BEBEBE"/>
<rect x="86.56" y="84.4795" width="5.77778" height="5.76" fill="#BEBEBE"/>
<rect x="103.893" y="84.4795" width="5.77778" height="5.76" fill="#BEBEBE"/>
<rect x="57.6711" y="84.4795" width="5.77778" height="5.76" fill="#BEBEBE"/>
<rect x="75.0045" y="84.4795" width="5.77778" height="5.76" fill="#BEBEBE"/>
<rect x="92.3378" y="84.4795" width="5.77778" height="5.76" fill="#BEBEBE"/>
<rect x="109.671" y="84.4795" width="5.77778" height="5.76" fill="#BEBEBE"/>
<rect x="40.3378" y="38.3994" width="5.77778" height="5.76" fill="#BEBEBE"/>
<rect x="40.3378" y="61.4395" width="5.77778" height="5.76" fill="#BEBEBE"/>
<rect x="57.6711" y="21.1191" width="5.77778" height="5.76" fill="#DCDCDC"/>
<rect x="80.7822" y="21.1191" width="5.77778" height="5.76" fill="#DCDCDC"/>
<rect x="51.8933" y="26.8799" width="5.77778" height="5.76" fill="#DCDCDC"/>
<rect x="75.0045" y="26.8799" width="5.77778" height="5.76" fill="#8E8E8E"/>
<rect x="98.1155" y="26.8799" width="5.77778" height="5.76" fill="#DCDCDC"/>
<rect x="46.1155" y="32.6396" width="5.77778" height="5.76" fill="#DCDCDC"/>
<rect x="69.2267" y="32.6396" width="5.77778" height="5.76" fill="#DCDCDC"/>
<rect x="92.3378" y="32.6396" width="5.77778" height="5.76" fill="#DCDCDC"/>
<rect x="46.1155" y="38.3994" width="5.77778" height="5.76" fill="#DCDCDC"/>
<rect x="46.1155" y="44.1592" width="5.77778" height="5.76" fill="#DCDCDC"/>
<rect x="46.1155" y="49.9199" width="5.77778" height="5.76" fill="#DCDCDC"/>
<rect x="46.1155" y="55.6797" width="5.77778" height="5.76" fill="#DCDCDC"/>
<rect x="46.1155" y="61.4395" width="5.77778" height="5.76" fill="#DCDCDC"/>
<rect x="46.1155" y="67.1992" width="5.77778" height="5.75999" fill="#DCDCDC"/>
<rect x="51.8933" y="72.96" width="5.77778" height="5.76" fill="#DCDCDC"/>
<rect x="57.6711" y="78.7197" width="5.77778" height="5.76001" fill="#DCDCDC"/>
<rect x="80.7822" y="78.7197" width="5.77778" height="5.76001" fill="#DCDCDC"/>
<rect x="75.0045" y="72.96" width="5.77778" height="5.76" fill="#DCDCDC"/>
<rect x="98.1155" y="72.96" width="5.77778" height="5.76" fill="#DCDCDC"/>
<rect x="69.2267" y="67.1992" width="5.77778" height="5.75999" fill="#DCDCDC"/>
<rect x="69.2267" y="61.4395" width="5.77778" height="5.76" fill="#DCDCDC"/>
<rect x="69.2267" y="55.6797" width="5.77778" height="5.76" fill="#DCDCDC"/>
<rect x="69.2267" y="49.9199" width="5.77778" height="5.76" fill="#DCDCDC"/>
<rect x="69.2267" y="44.1592" width="5.77778" height="5.76" fill="#DCDCDC"/>
<rect x="69.2267" y="38.3994" width="5.77778" height="5.76" fill="#DCDCDC"/>
<rect x="92.3378" y="38.3994" width="5.77778" height="5.76" fill="#DCDCDC"/>
<rect x="92.3378" y="44.1592" width="5.77778" height="5.76" fill="#DCDCDC"/>
<rect x="92.3378" y="49.9199" width="5.77778" height="5.76" fill="#DCDCDC"/>
<rect x="92.3378" y="55.6797" width="5.77778" height="5.76" fill="#DCDCDC"/>
<rect x="92.3378" y="61.4395" width="5.77778" height="5.76" fill="#DCDCDC"/>
<rect x="92.3378" y="67.1992" width="5.77778" height="5.75999" fill="#DCDCDC"/>
<rect x="69.2267" y="21.1191" width="5.77778" height="5.76" fill="#DCDCDC"/>
<rect x="92.3378" y="21.1191" width="5.77778" height="5.76" fill="#DCDCDC"/>
<rect x="63.4489" y="26.8799" width="5.77778" height="5.76" fill="#DCDCDC"/>
<rect x="86.56" y="26.8799" width="5.77778" height="5.76" fill="#DCDCDC"/>
<rect x="109.671" y="26.8799" width="5.77778" height="5.76" fill="#DCDCDC"/>
<rect x="103.893" y="21.1191" width="5.77778" height="5.76" fill="#DCDCDC"/>
<rect x="57.6711" y="32.6396" width="5.77778" height="5.76" fill="#8E8E8E"/>
<rect x="80.7822" y="32.6396" width="5.77778" height="5.76" fill="#DCDCDC"/>
<rect x="103.893" y="32.6396" width="5.77778" height="5.76" fill="#DCDCDC"/>
<rect x="115.449" y="32.6396" width="5.77778" height="5.76" fill="#DCDCDC"/>
<rect x="57.6711" y="38.3994" width="5.77778" height="5.76" fill="#DCDCDC"/>
<rect x="57.6711" y="44.1592" width="5.77778" height="5.76" fill="#DCDCDC"/>
<rect x="57.6711" y="49.9199" width="5.77778" height="5.76" fill="#DCDCDC"/>
<rect x="57.6711" y="55.6797" width="5.77778" height="5.76" fill="#DCDCDC"/>
<rect x="57.6711" y="61.4395" width="5.77778" height="5.76" fill="#DCDCDC"/>
<rect x="57.6711" y="67.1992" width="5.77778" height="5.75999" fill="#DCDCDC"/>
<rect x="63.4489" y="72.96" width="5.77778" height="5.76" fill="#DCDCDC"/>
<rect x="69.2267" y="78.7197" width="5.77778" height="5.76001" fill="#DCDCDC"/>
<rect x="92.3378" y="78.7197" width="5.77778" height="5.76001" fill="#DCDCDC"/>
<rect x="86.56" y="72.96" width="5.77778" height="5.76" fill="#DCDCDC"/>
<rect x="109.671" y="72.96" width="5.77778" height="5.76" fill="#DCDCDC"/>
<rect x="80.7822" y="67.1992" width="5.77778" height="5.75999" fill="#DCDCDC"/>
<rect x="80.7822" y="61.4395" width="5.77778" height="5.76" fill="#DCDCDC"/>
<rect x="80.7822" y="55.6797" width="5.77778" height="5.76" fill="#DCDCDC"/>
<rect x="80.7822" y="49.9199" width="5.77778" height="5.76" fill="#8E8E8E"/>
<rect x="80.7822" y="44.1592" width="5.77778" height="5.76" fill="#DCDCDC"/>
<rect x="80.7822" y="38.3994" width="5.77778" height="5.76" fill="#DCDCDC"/>
<rect x="103.893" y="38.3994" width="5.77778" height="5.76" fill="#8E8E8E"/>
<rect x="115.449" y="38.3994" width="5.77778" height="5.76" fill="#DCDCDC"/>
<rect x="103.893" y="44.1592" width="5.77778" height="5.76" fill="#DCDCDC"/>
<rect x="115.449" y="44.1592" width="5.77778" height="5.76" fill="#DCDCDC"/>
<rect x="103.893" y="49.9199" width="5.77778" height="5.76" fill="#DCDCDC"/>
<rect x="115.449" y="49.9199" width="5.77778" height="5.76" fill="#DCDCDC"/>
<rect x="103.893" y="55.6797" width="5.77778" height="5.76" fill="#DCDCDC"/>
<rect x="115.449" y="55.6797" width="5.77778" height="5.76" fill="#DCDCDC"/>
<rect x="103.893" y="61.4395" width="5.77778" height="5.76" fill="#DCDCDC"/>
<rect x="115.449" y="61.4395" width="5.77778" height="5.76" fill="#DCDCDC"/>
<rect x="103.893" y="67.1992" width="5.77778" height="5.75999" fill="#DCDCDC"/>
<rect x="115.449" y="67.1992" width="5.77778" height="5.75999" fill="#DCDCDC"/>
<rect x="103.893" y="78.7197" width="5.77778" height="5.76001" fill="#DCDCDC"/>
<rect x="63.4489" y="21.1191" width="5.77778" height="5.76" fill="#DCDCDC"/>
<rect x="86.56" y="21.1191" width="5.77778" height="5.76" fill="#DCDCDC"/>
<rect x="57.6711" y="26.8799" width="5.77778" height="5.76" fill="#DCDCDC"/>
<rect x="80.7822" y="26.8799" width="5.77778" height="5.76" fill="#DCDCDC"/>
<rect x="103.893" y="26.8799" width="5.77778" height="5.76" fill="#DCDCDC"/>
<rect x="51.8933" y="32.6396" width="5.77778" height="5.76" fill="#DCDCDC"/>
<rect x="75.0045" y="32.6396" width="5.77778" height="5.76" fill="#DCDCDC"/>
<rect x="98.1155" y="32.6396" width="5.77778" height="5.76" fill="#DCDCDC"/>
<rect x="51.8933" y="38.3994" width="5.77778" height="5.76" fill="#DCDCDC"/>
<rect x="51.8933" y="44.1592" width="5.77778" height="5.76" fill="#DCDCDC"/>
<rect x="51.8933" y="49.9199" width="5.77778" height="5.76" fill="#8E8E8E"/>
<rect x="51.8933" y="55.6797" width="5.77778" height="5.76" fill="#DCDCDC"/>
<rect x="51.8933" y="61.4395" width="5.77778" height="5.76" fill="#DCDCDC"/>
<rect x="51.8933" y="67.1992" width="5.77778" height="5.75999" fill="#8E8E8E"/>
<rect x="57.6711" y="72.96" width="5.77778" height="5.76" fill="#DCDCDC"/>
<rect x="63.4489" y="78.7197" width="5.77778" height="5.76001" fill="#DCDCDC"/>
<rect x="86.56" y="78.7197" width="5.77778" height="5.76001" fill="#DCDCDC"/>
<rect x="80.7822" y="72.96" width="5.77778" height="5.76" fill="#DCDCDC"/>
<rect x="103.893" y="72.96" width="5.77778" height="5.76" fill="#DCDCDC"/>
<rect x="75.0045" y="67.1992" width="5.77778" height="5.75999" fill="#DCDCDC"/>
<rect x="75.0045" y="61.4395" width="5.77778" height="5.76" fill="#DCDCDC"/>
<rect x="75.0045" y="55.6797" width="5.77778" height="5.76" fill="#DCDCDC"/>
<rect x="75.0045" y="49.9199" width="5.77778" height="5.76" fill="#DCDCDC"/>
<rect x="75.0045" y="44.1592" width="5.77778" height="5.76" fill="#DCDCDC"/>
<rect x="75.0045" y="38.3994" width="5.77778" height="5.76" fill="#DCDCDC"/>
<rect x="98.1155" y="38.3994" width="5.77778" height="5.76" fill="#DCDCDC"/>
<rect x="98.1155" y="44.1592" width="5.77778" height="5.76" fill="#DCDCDC"/>
<rect x="98.1155" y="49.9199" width="5.77778" height="5.76" fill="#DCDCDC"/>
<rect x="98.1155" y="55.6797" width="5.77778" height="5.76" fill="#8E8E8E"/>
<rect x="98.1155" y="61.4395" width="5.77778" height="5.76" fill="#DCDCDC"/>
<rect x="98.1155" y="67.1992" width="5.77778" height="5.75999" fill="#DCDCDC"/>
<rect x="75.0045" y="21.1191" width="5.77778" height="5.76" fill="#DCDCDC"/>
<rect x="98.1155" y="21.1191" width="5.77778" height="5.76" fill="#DCDCDC"/>
<rect x="69.2267" y="26.8799" width="5.77778" height="5.76" fill="#DCDCDC"/>
<rect x="92.3378" y="26.8799" width="5.77778" height="5.76" fill="#8E8E8E"/>
<rect x="115.449" y="26.8799" width="5.77778" height="5.76" fill="#DCDCDC"/>
<rect x="109.671" y="21.1191" width="5.77778" height="5.76" fill="#DCDCDC"/>
<rect x="63.4489" y="32.6396" width="5.77778" height="5.76" fill="#DCDCDC"/>
<rect x="86.56" y="32.6396" width="5.77778" height="5.76" fill="#DCDCDC"/>
<rect x="109.671" y="32.6396" width="5.77778" height="5.76" fill="#DCDCDC"/>
<rect x="121.227" y="32.6396" width="5.77778" height="5.76" fill="#DCDCDC"/>
<rect x="63.4489" y="38.3994" width="5.77778" height="5.76" fill="#DCDCDC"/>
<rect x="63.4489" y="44.1592" width="5.77778" height="5.76" fill="#DCDCDC"/>
<rect x="63.4489" y="49.9199" width="5.77778" height="5.76" fill="#DCDCDC"/>
<rect x="63.4489" y="55.6797" width="5.77778" height="5.76" fill="#8E8E8E"/>
<rect x="63.4489" y="61.4395" width="5.77778" height="5.76" fill="#DCDCDC"/>
<rect x="63.4489" y="67.1992" width="5.77778" height="5.75999" fill="#DCDCDC"/>
<rect x="69.2267" y="72.96" width="5.77778" height="5.76" fill="#8E8E8E"/>
<rect x="75.0045" y="78.7197" width="5.77778" height="5.76001" fill="#DCDCDC"/>
<rect x="98.1155" y="78.7197" width="5.77778" height="5.76001" fill="#DCDCDC"/>
<rect x="92.3378" y="72.96" width="5.77778" height="5.76" fill="#8E8E8E"/>
<rect x="115.449" y="72.96" width="5.77778" height="5.76" fill="#DCDCDC"/>
<rect x="86.56" y="67.1992" width="5.77778" height="5.75999" fill="#DCDCDC"/>
<rect x="86.56" y="61.4395" width="5.77778" height="5.76" fill="#DCDCDC"/>
<rect x="86.56" y="55.6797" width="5.77778" height="5.76" fill="#DCDCDC"/>
<rect x="86.56" y="49.9199" width="5.77778" height="5.76" fill="#DCDCDC"/>
<rect x="86.56" y="44.1592" width="5.77778" height="5.76" fill="#DCDCDC"/>
<rect x="86.56" y="38.3994" width="5.77778" height="5.76" fill="#DCDCDC"/>
<rect x="109.671" y="38.3994" width="5.77778" height="5.76" fill="#DCDCDC"/>
<rect x="121.227" y="38.3994" width="5.77778" height="5.76" fill="#DCDCDC"/>
<rect x="109.671" y="44.1592" width="5.77778" height="5.76" fill="#DCDCDC"/>
<rect x="121.227" y="44.1592" width="5.77778" height="5.76" fill="#DCDCDC"/>
<rect x="109.671" y="49.9199" width="5.77778" height="5.76" fill="#DCDCDC"/>
<rect x="121.227" y="49.9199" width="5.77778" height="5.76" fill="#DCDCDC"/>
<rect x="109.671" y="55.6797" width="5.77778" height="5.76" fill="#DCDCDC"/>
<rect x="121.227" y="55.6797" width="5.77778" height="5.76" fill="#DCDCDC"/>
<rect x="109.671" y="61.4395" width="5.77778" height="5.76" fill="#8E8E8E"/>
<rect x="121.227" y="61.4395" width="5.77778" height="5.76" fill="#DCDCDC"/>
<rect x="109.671" y="67.1992" width="5.77778" height="5.75999" fill="#DCDCDC"/>
<rect x="121.227" y="67.1992" width="5.77778" height="5.75999" fill="#DCDCDC"/>
<rect x="109.671" y="78.7197" width="5.77778" height="5.76001" fill="#DCDCDC"/>
<rect x="80.64" y="25.8799" width="5.76" height="5.76" fill="#C4C4C4"/>
<rect x="80.64" y="37.4004" width="5.76" height="5.76" fill="#C4C4C4"/>
<rect x="74.88" y="48.9199" width="5.76" height="5.76" fill="#C4C4C4"/>
<rect x="74.88" y="60.4404" width="5.76" height="5.76" fill="#C4C4C4"/>
<rect x="86.4" y="48.9199" width="5.76" height="5.76" fill="#C4C4C4"/>
<rect x="86.4" y="25.8799" width="5.76" height="5.76" fill="#C4C4C4"/>
<rect x="86.4" y="37.4004" width="5.76" height="5.76" fill="#C4C4C4"/>
<rect x="80.64" y="48.9199" width="5.76" height="5.76" fill="#C4C4C4"/>
<rect x="92.16" y="48.9199" width="5.76" height="5.76" fill="#C4C4C4"/>
<rect x="92.16" y="66.2002" width="5.76" height="5.76" fill="#C4C4C4"/>
<rect x="97.92" y="66.2002" width="5.76" height="5.76" fill="#C4C4C4"/>
<rect x="92.16" y="43.1602" width="5.76" height="5.76" fill="#C4C4C4"/>
<rect x="92.16" y="60.4404" width="5.76" height="5.76" fill="#C4C4C4"/>
<rect x="103.68" y="60.4404" width="5.76" height="5.76" fill="#C4C4C4"/>
<rect x="115.2" y="60.4404" width="5.76" height="5.76" fill="#C4C4C4"/>
<rect x="115.2" y="66.2002" width="5.76" height="5.76" fill="#C4C4C4"/>
<rect x="126.72" y="60.4404" width="5.76" height="5.76" fill="#C4C4C4"/>
<rect x="126.72" y="66.2002" width="5.76" height="5.76" fill="#C4C4C4"/>
<rect x="138.24" y="60.4404" width="5.76" height="5.76" fill="#C4C4C4"/>
<rect x="138.24" y="66.2002" width="5.76" height="5.76" fill="#C4C4C4"/>
<rect x="138.24" y="71.96" width="5.76" height="5.76" fill="#C4C4C4"/>
<rect x="144" y="71.96" width="5.76" height="5.76" fill="#C4C4C4"/>
<rect x="97.92" y="60.4404" width="5.76" height="5.76" fill="#C4C4C4"/>
<rect x="109.44" y="60.4404" width="5.76" height="5.76" fill="#C4C4C4"/>
<rect x="120.96" y="60.4404" width="5.76" height="5.76" fill="#C4C4C4"/>
<rect x="132.48" y="60.4404" width="5.76" height="5.76" fill="#C4C4C4"/>
<rect x="126.72" y="54.6797" width="5.76" height="5.76" fill="#C4C4C4"/>
<rect x="115.2" y="54.6797" width="5.76" height="5.76" fill="#C4C4C4"/>
<rect x="109.44" y="54.6797" width="5.76" height="5.76" fill="#C4C4C4"/>
<rect x="109.44" y="66.2002" width="5.76" height="5.76" fill="#C4C4C4"/>
<rect x="120.96" y="43.1602" width="5.76" height="5.76" fill="#C4C4C4"/>
<rect x="120.96" y="48.9199" width="5.76" height="5.76" fill="#C4C4C4"/>
<rect x="97.92" y="43.1602" width="5.76" height="5.76" fill="#C4C4C4"/>
<rect x="126.72" y="43.1602" width="5.76" height="5.76" fill="#C4C4C4"/>
<rect x="126.72" y="48.9199" width="5.76" height="5.76" fill="#C4C4C4"/>
<rect x="126.72" y="37.4004" width="5.76" height="5.76" fill="#C4C4C4"/>
<rect x="138.24" y="37.4004" width="5.76" height="5.76" fill="#C4C4C4"/>
<rect x="138.24" y="31.6396" width="5.76" height="5.76" fill="#C4C4C4"/>
<rect x="138.24" y="25.8799" width="5.76" height="5.76" fill="#C4C4C4"/>
<rect x="138.24" y="43.1602" width="5.76" height="5.76" fill="#C4C4C4"/>
<rect x="103.68" y="43.1602" width="5.76" height="5.76" fill="#C4C4C4"/>
<rect x="132.48" y="43.1602" width="5.76" height="5.76" fill="#C4C4C4"/>
<rect x="132.48" y="37.4004" width="5.76" height="5.76" fill="#C4C4C4"/>
<rect x="132.48" y="31.6396" width="5.76" height="5.76" fill="#C4C4C4"/>
<rect x="144" y="37.4004" width="5.76" height="5.76" fill="#C4C4C4"/>
<rect x="144" y="48.9199" width="5.76" height="5.76" fill="#C4C4C4"/>
<rect x="149.76" y="48.9199" width="5.76" height="5.76" fill="#C4C4C4"/>
<rect x="144" y="31.6396" width="5.76" height="5.76" fill="#C4C4C4"/>
<rect x="144" y="25.8799" width="5.76" height="5.76" fill="#C4C4C4"/>
<rect x="144" y="43.1602" width="5.76" height="5.76" fill="#C4C4C4"/>
<rect x="144" y="54.6797" width="5.76" height="5.76" fill="#C4C4C4"/>
<rect x="149.76" y="54.6797" width="5.76" height="5.76" fill="#C4C4C4"/>
<rect x="97.92" y="37.4004" width="5.76" height="5.76" fill="#C4C4C4"/>
<rect x="92.16" y="37.4004" width="5.76" height="5.76" fill="#C4C4C4"/>
<rect x="80.64" y="31.6396" width="5.76" height="5.76" fill="#C4C4C4"/>
<rect x="80.64" y="43.1602" width="5.76" height="5.76" fill="#C4C4C4"/>
<rect x="109.44" y="43.1602" width="5.76" height="5.76" fill="#C4C4C4"/>
<rect x="109.44" y="48.9199" width="5.76" height="5.76" fill="#C4C4C4"/>
<rect x="74.88" y="54.6797" width="5.76" height="5.76" fill="#C4C4C4"/>
<rect x="74.88" y="66.2002" width="5.76" height="5.76" fill="#C4C4C4"/>
<rect x="86.4" y="54.6797" width="5.76" height="5.76" fill="#C4C4C4"/>
<rect x="92.16" y="31.6396" width="5.76" height="5.76" fill="#C4C4C4"/>
<rect x="86.4" y="31.6396" width="5.76" height="5.76" fill="#C4C4C4"/>
<rect x="86.4" y="43.1602" width="5.76" height="5.76" fill="#C4C4C4"/>
<rect x="115.2" y="43.1602" width="5.76" height="5.76" fill="#C4C4C4"/>
<rect x="115.2" y="48.9199" width="5.76" height="5.76" fill="#C4C4C4"/>
<rect x="80.64" y="54.6797" width="5.76" height="5.76" fill="#C4C4C4"/>
<rect x="92.16" y="54.6797" width="5.76" height="5.76" fill="#C4C4C4"/>
<rect x="92.16" y="71.96" width="5.76" height="5.76" fill="#C4C4C4"/>
<rect x="80.64" y="71.96" width="5.76" height="5.76" fill="#C4C4C4"/>
<rect x="86.4" y="77.7197" width="5.76" height="5.76" fill="#C4C4C4"/>
<rect x="109.44" y="77.7197" width="5.76" height="5.76" fill="#C4C4C4"/>
<rect x="97.92" y="77.7197" width="5.76" height="5.76" fill="#C4C4C4"/>
<rect x="120.96" y="77.7197" width="5.76" height="5.76" fill="#C4C4C4"/>
<rect x="132.48" y="77.7197" width="5.76" height="5.76" fill="#C4C4C4"/>
<rect x="97.92" y="71.96" width="5.76" height="5.76" fill="#C4C4C4"/>
<rect x="86.4" y="71.96" width="5.76" height="5.76" fill="#C4C4C4"/>
<rect x="92.16" y="77.7197" width="5.76" height="5.76" fill="#C4C4C4"/>
<rect x="115.2" y="77.7197" width="5.76" height="5.76" fill="#C4C4C4"/>
<rect x="103.68" y="77.7197" width="5.76" height="5.76" fill="#C4C4C4"/>
<rect x="126.72" y="77.7197" width="5.76" height="5.76" fill="#C4C4C4"/>
<rect x="138.24" y="77.7197" width="5.76" height="5.76" fill="#C4C4C4"/>
<rect x="74.88" y="25.8799" width="5.76" height="5.76" fill="black"/>
<rect x="80.64" y="20.1201" width="5.76" height="5.76" fill="black"/>
<rect x="86.4" y="20.1201" width="5.76" height="5.76" fill="black"/>
<rect x="92.16" y="25.8799" width="5.76" height="5.76" fill="black"/>
<rect x="97.92" y="31.6396" width="5.76" height="5.76" fill="black"/>
<rect x="103.68" y="37.4004" width="5.76" height="5.76" fill="black"/>
<rect x="109.44" y="37.4004" width="5.76" height="5.76" fill="black"/>
<rect x="115.2" y="37.4004" width="5.76" height="5.76" fill="black"/>
<rect x="120.96" y="37.4004" width="5.76" height="5.76" fill="black"/>
<rect x="126.72" y="31.6396" width="5.76" height="5.76" fill="black"/>
<rect x="132.48" y="25.8799" width="5.76" height="5.76" fill="black"/>
<rect x="138.24" y="20.1201" width="5.76" height="5.76" fill="black"/>
<rect x="144" y="20.1201" width="5.76" height="5.76" fill="black"/>
<rect x="149.76" y="25.8799" width="5.76" height="5.76" fill="black"/>
<rect x="149.76" y="31.6396" width="5.76" height="5.76" fill="black"/>
<rect x="149.76" y="37.4004" width="5.76" height="5.76" fill="black"/>
<rect x="149.76" y="43.1602" width="5.76" height="5.76" fill="black"/>
<rect x="74.88" y="31.6396" width="5.76" height="5.76" fill="black"/>
<rect x="74.88" y="37.4004" width="5.76" height="5.76" fill="black"/>
<rect x="74.88" y="43.1602" width="5.76" height="5.76" fill="black"/>
<rect x="69.12" y="48.9199" width="5.76" height="5.76" fill="black"/>
<rect x="69.12" y="54.6797" width="5.76" height="5.76" fill="black"/>
<rect x="69.12" y="60.4404" width="5.76" height="5.76" fill="black"/>
<rect x="69.12" y="66.2002" width="5.76" height="5.76" fill="black"/>
<rect x="74.88" y="71.96" width="5.76" height="5.76" fill="black"/>
<rect x="80.64" y="77.7197" width="5.76" height="5.76" fill="black"/>
<rect x="86.4" y="83.4805" width="5.76" height="5.76" fill="black"/>
<rect x="92.16" y="83.4805" width="5.76" height="5.76" fill="black"/>
<rect x="97.92" y="83.4805" width="5.76" height="5.76" fill="black"/>
<rect x="103.68" y="83.4805" width="5.76" height="5.76" fill="black"/>
<rect x="109.44" y="83.4805" width="5.76" height="5.76" fill="black"/>
<rect x="115.2" y="83.4805" width="5.76" height="5.76" fill="black"/>
<rect x="120.96" y="83.4805" width="5.76" height="5.76" fill="black"/>
<rect x="120.96" y="54.6797" width="5.76" height="5.76" fill="black"/>
<rect x="103.68" y="66.2002" width="5.76" height="5.76" fill="black"/>
<rect x="103.68" y="71.96" width="5.76" height="5.76" fill="black"/>
<rect x="109.44" y="71.96" width="5.76" height="5.76" fill="black"/>
<rect x="115.2" y="71.96" width="5.76" height="5.76" fill="black"/>
<rect x="120.96" y="71.96" width="5.76" height="5.76" fill="black"/>
<rect x="126.72" y="71.96" width="5.76" height="5.76" fill="black"/>
<rect x="132.48" y="71.96" width="5.76" height="5.76" fill="black"/>
<rect x="132.48" y="66.2002" width="5.76" height="5.76" fill="black"/>
<rect x="120.96" y="66.2002" width="5.76" height="5.76" fill="black"/>
<rect x="138.24" y="54.6797" width="5.76" height="5.76" fill="black"/>
<rect x="103.68" y="54.6797" width="5.76" height="5.76" fill="black"/>
<rect x="132.48" y="54.6797" width="5.76" height="5.76" fill="black"/>
<rect x="97.92" y="54.6797" width="5.76" height="5.76" fill="black"/>
<rect x="138.24" y="48.9199" width="5.76" height="5.76" fill="black"/>
<rect x="103.68" y="48.9199" width="5.76" height="5.76" fill="black"/>
<rect x="132.48" y="48.9199" width="5.76" height="5.76" fill="#F8F8F8"/>
<rect x="97.92" y="48.9199" width="5.76" height="5.76" fill="#F8F8F8"/>
<rect x="80.64" y="66.2002" width="5.76" height="5.76" fill="#DCDCDC"/>
<rect x="144" y="66.2002" width="5.76" height="5.76" fill="#DCDCDC"/>
<rect x="86.4" y="66.2002" width="5.76" height="5.76" fill="#DCDCDC"/>
<rect x="149.76" y="66.2002" width="5.76" height="5.76" fill="#DCDCDC"/>
<rect x="86.4" y="60.4404" width="5.76" height="5.76" fill="#DCDCDC"/>
<rect x="149.76" y="60.4404" width="5.76" height="5.76" fill="#DCDCDC"/>
<rect x="80.64" y="60.4404" width="5.76" height="5.76" fill="#DCDCDC"/>
<rect x="144" y="60.4404" width="5.76" height="5.76" fill="#DCDCDC"/>
<rect x="126.72" y="83.4805" width="5.76" height="5.76" fill="black"/>
<rect x="132.48" y="83.4805" width="5.76" height="5.76" fill="black"/>
<rect x="144" y="77.7197" width="5.76" height="5.76" fill="black"/>
<rect x="138.24" y="83.4805" width="5.76" height="5.76" fill="black"/>
<rect x="149.76" y="71.96" width="5.76" height="5.76" fill="black"/>
<rect x="155.52" y="66.2002" width="5.76" height="5.76" fill="black"/>
<rect x="155.52" y="60.4404" width="5.76" height="5.76" fill="black"/>
<rect x="155.52" y="54.6797" width="5.76" height="5.76" fill="black"/>
<rect x="155.52" y="48.9199" width="5.76" height="5.76" fill="black"/>
</svg>
